<?xml version="1.0" encoding="UTF-8" standalone="no"?>
<svg width="16px" height="16px" viewBox="0 0 16 16" version="1.1" xmlns="http://www.w3.org/2000/svg" xmlns:xlink="http://www.w3.org/1999/xlink" xmlns:sketch="http://www.bohemiancoding.com/sketch/ns">
    <!-- Generator: Sketch 3.4.4 (17249) - http://www.bohemiancoding.com/sketch -->
    <title>Slice 1</title>
    <desc>Created with Sketch.</desc>
    <defs></defs>
    <g id="Page-1" stroke="none" stroke-width="1" fill="none" fill-rule="evenodd" sketch:type="MSPage">
        <g id="gel-icons-live" sketch:type="MSLayerGroup" fill="#000000">
            <g id="gs-icon-live-text" sketch:type="MSShapeGroup">
                <g id="gs-icon-live-text-Layer_2">
                    <path d="M8,1.6 C11.52,1.6 14.4,4.48 14.4,8 C14.4,11.52 11.52,14.4 8,14.4 C4.48,14.4 1.6,11.52 1.6,8 C1.6,4.48 4.48,1.6 8,1.6 L8,1.6 Z M8,0 C3.6,0 0,3.6 0,8 C0,12.4 3.6,16 8,16 C12.4,16 16,12.4 16,8 C16,3.6 12.4,0 8,0 L8,0 L8,0 Z" id="Shape"></path>
                    <g id="Group" transform="translate(4.000000, 4.800000)">
                        <rect id="Rectangle-path" x="0" y="2.4" width="6.4" height="1.6"></rect>
                        <rect id="Rectangle-path" x="0" y="4.8" width="8" height="1.6"></rect>
                        <rect id="Rectangle-path" x="0" y="0" width="8" height="1.6"></rect>
                    </g>
                </g>
            </g>
            <g id="gs-icon-live-data" sketch:type="MSShapeGroup">
                <path d="M8,1.6 C11.52,1.6 14.4,4.48 14.4,8 C14.4,11.52 11.52,14.4 8,14.4 C4.48,14.4 1.6,11.52 1.6,8 C1.6,4.48 4.48,1.6 8,1.6 L8,1.6 Z M8,0 C3.6,0 0,3.6 0,8 C0,12.4 3.6,16 8,16 C12.4,16 16,12.4 16,8 C16,3.6 12.4,0 8,0 L8,0 Z" id="Shape"></path>
                <path d="M8.96,3.28 L8.96,5.6 C9.92,6 10.64,6.88 10.64,8 C10.64,9.44 9.52,10.56 8.08,10.56 C7.68,10.56 7.36,10.48 7.04,10.32 L5.44,11.92 C6.24,12.4 7.12,12.72 8.08,12.72 C10.72,12.72 12.88,10.56 12.88,7.92 C12.8,5.6 11.12,3.68 8.96,3.28 M5.44,7.92 C5.44,6.8 6.16,5.92 7.12,5.52 L7.12,3.28 C4.88,3.68 3.2,5.6 3.2,7.92 C3.2,8.88 3.52,9.84 4,10.56 L5.6,8.96 C5.52,8.64 5.44,8.32 5.44,7.92" id="Shape"></path>
            </g>
            <g id="gs-icon-live-media" sketch:type="MSShapeGroup">
                <g id="gs-icon-live-media-Layer_2">
                    <path d="M5.6,12 L12,8.08 L5.6,4.16 L5.6,12 Z" id="Shape"></path>
                    <path d="M8,1.6 C11.52,1.6 14.4,4.48 14.4,8 C14.4,11.52 11.52,14.4 8,14.4 C4.48,14.4 1.6,11.52 1.6,8 C1.6,4.48 4.48,1.6 8,1.6 L8,1.6 Z M8,0 C3.6,0 0,3.6 0,8 C0,12.4 3.6,16 8,16 C12.4,16 16,12.4 16,8 C16,3.6 12.4,0 8,0 L8,0 L8,0 Z" id="Shape"></path>
                </g>
            </g>
            <g id="gs-icon-live-dot" sketch:type="MSShapeGroup">
                <g id="gs-icon-live-dot-Layer_3">
                    <path d="M8,2 C11.3,2 14,4.7 14,8 C14,11.3 11.3,14 8,14 C4.7,14 2,11.3 2,8 C2,4.7 4.7,2 8,2 L8,2 Z M8,0 C3.6,0 0,3.6 0,8 C0,12.4 3.6,16 8,16 C12.4,16 16,12.4 16,8 C16,3.6 12.4,0 8,0 L8,0 Z" id="Shape"></path>
                    <circle id="pulse" cx="8" cy="8" r="4.25"></circle>
                </g>
            </g>
        </g>
    </g>
</svg>